<?xml version="1.0" encoding="iso-8859-1"?>
<!-- Generator: Adobe Illustrator 19.0.0, SVG Export Plug-In . SVG Version: 6.00 Build 0)  -->
<svg version="1.1" id="Layer_1" xmlns="http://www.w3.org/2000/svg" xmlns:xlink="http://www.w3.org/1999/xlink" x="0px" y="0px"
	 viewBox="0 0 512.009 512.009" style="enable-background:new 0 0 512.009 512.009;" xml:space="preserve">
<g>
	<g>
		<path d="M401.013,7.654C400.493,3.379,396.84,0,392.531,0c-38.963,0-73.189,18.884-91.194,48.255
			c-7.347-19.66-21.222-35.677-41.045-47.103c-2.611-1.502-5.956-1.502-8.567,0c-19.831,11.426-33.706,27.443-41.045,47.103
			C192.667,18.884,158.44,0,119.477,0c-4.309,0-7.97,3.379-8.49,7.654c-7.799,63.342,11.673,98.669,34.124,118.304
			c1.544,1.348,3.541,2.039,5.589,2.039H361.3c2.048,0,4.045-0.691,5.589-2.039C389.34,106.324,408.812,71.005,401.013,7.654z"/>
	</g>
</g>
<g>
	<g>
		<path d="M355.804,147.829c-1.621-1.792-3.908-2.765-6.332-2.765H162.536c-2.423,0-4.702,0.973-6.332,2.765
			C99.928,210.147,26.218,336.984,60.991,424.774c22.937,57.898,87.312,87.235,191.297,87.235c2.423,0,4.898,0,7.321,0
			c104.079,0,168.471-29.337,191.408-87.235C485.79,336.984,412.081,210.147,355.804,147.829z M326.612,362.251
			c-1.92,22.374-25.719,39.654-58.282,43.63c-2.142,0.265-3.789,2.022-3.789,4.181v8.781c0,4.71-3.814,8.533-8.533,8.533
			c-4.719,0-8.533-3.823-8.533-8.533v-8.132c0-2.287-1.852-4.139-4.139-4.25c-26.752-1.246-39.876-7.057-55.312-22.92
			c-3.285-3.379-3.208-8.781,0.171-12.066c3.379-3.294,8.772-3.208,12.066,0.171c11.417,11.733,20.01,16.563,42.734,17.732
			c2.423,0.128,4.48-1.843,4.48-4.275v-57.744c0-2.133-1.63-3.891-3.746-4.19c-37.913-5.273-54.775-27.323-54.45-48.503
			c0.333-22.024,19.063-44.501,54.416-49.1c2.133-0.273,3.78-2.031,3.78-4.173v-8.781c0-4.71,3.814-8.533,8.533-8.533
			c4.719,0,8.533,3.823,8.533,8.533v8.337c0,2.253,1.8,4.079,4.053,4.224c26.76,1.741,44.757,9.25,55.969,23.381
			c2.935,3.695,2.313,9.062-1.382,11.989s-9.071,2.304-11.981-1.382c-5.154-6.502-15.095-14.839-42.043-16.896
			c-2.458-0.188-4.608,1.809-4.608,4.275v59.007c0,1.963,1.408,3.652,3.311,4.122C324.999,323.758,327.389,353.155,326.612,362.251z
			"/>
	</g>
</g>
<g>
	<g>
		<path d="M242.56,243.128c-23.492,4.147-36.019,18.056-36.232,31.803c-0.188,12.825,11.161,26.112,36.172,30.643
			c2.577,0.469,4.966-1.613,4.966-4.232v-53.972C247.467,244.766,245.12,242.675,242.56,243.128z"/>
	</g>
</g>
<g>
	<g>
		<path d="M269.96,327.854c-2.705-0.794-5.427,1.306-5.427,4.122v52.206c0,2.577,2.295,4.642,4.847,4.25
			c24.166-3.746,39.219-15.94,40.225-27.639C310.484,350.552,300.176,336.677,269.96,327.854z"/>
	</g>
</g>
<g>
</g>
<g>
</g>
<g>
</g>
<g>
</g>
<g>
</g>
<g>
</g>
<g>
</g>
<g>
</g>
<g>
</g>
<g>
</g>
<g>
</g>
<g>
</g>
<g>
</g>
<g>
</g>
<g>
</g>
</svg>
